<?xml version="1.0" encoding="UTF-8" standalone="no"?>
<!-- Created with Inkscape (http://www.inkscape.org/) -->

<svg
   version="1.1"
   id="svg1"
   width="1401.3333"
   height="1440"
   viewBox="0 0 1401.3333 1440"
   sodipodi:docname="Temida_Variations-02.eps"
   xmlns:inkscape="http://www.inkscape.org/namespaces/inkscape"
   xmlns:sodipodi="http://sodipodi.sourceforge.net/DTD/sodipodi-0.dtd"
   xmlns="http://www.w3.org/2000/svg"
   xmlns:svg="http://www.w3.org/2000/svg">
  <defs
     id="defs1" />
  <sodipodi:namedview
     id="namedview1"
     pagecolor="#ffffff"
     bordercolor="#000000"
     borderopacity="0.25"
     inkscape:showpageshadow="2"
     inkscape:pageopacity="0.0"
     inkscape:pagecheckerboard="0"
     inkscape:deskcolor="#d1d1d1">
    <inkscape:page
       x="0"
       y="0"
       inkscape:label="1"
       id="page1"
       width="1401.3333"
       height="1440"
       margin="0"
       bleed="0" />
  </sodipodi:namedview>
  <g
     id="g1"
     inkscape:groupmode="layer"
     inkscape:label="1">
    <g
       id="group-R5">
      <path
         id="path2"
         d="m 5241.91,8351.63 c 12.84,-37.44 66.14,-35.84 123.19,-46.64 57.04,-10.81 45.81,0 45.81,0 -49.91,37.68 -169,46.64 -169,46.64"
         style="fill:#EECAA2;fill-opacity:1;fill-rule:nonzero;stroke:none"
         transform="matrix(0.13333333,0,0,-0.13333333,0,1440)" />
      <path
         id="path3"
         d="m 4684.16,8752.25 c 46.85,10.43 154.1,39.78 201.89,45.3 96.06,9.88 163.84,-23.57 260.71,-26.07 99.36,1.86 221.61,47.85 256.2,79.88 l -1.22,3.29 c -62.59,-14.92 -99.55,-34.02 -163.73,-39.67 -31.95,-2.6 -74.09,-12.5 -143.39,4.35 -31.04,7.55 -41.26,47.98 -73.87,47.8 -115.11,-0.68 -235.59,-59.56 -341.64,-101.98 -15.04,-6.44 -29.78,-13.87 -42.96,-23.13 l 1.94,-2.99 c 15.05,5.56 30.51,9.58 46.07,13.22"
         style="fill:#EECAA2;fill-opacity:1;fill-rule:nonzero;stroke:none"
         transform="matrix(0.13333333,0,0,-0.13333333,0,1440)" />
      <path
         id="path4"
         d="m 5207.98,8393.55 4.63,0.04 35.78,1.73 29.55,1.65 14.59,0.11 c 0.29,0 0.58,-0.02 0.87,-0.05 l 28.96,-3.18 c 0.48,-0.05 0.96,-0.15 1.42,-0.29 l 28.8,-8.95 c 0.38,-0.12 0.76,-0.28 1.12,-0.46 l 28.73,-14.29 c 0.18,-0.09 0.36,-0.19 0.53,-0.29 l 28.17,-16.98 7.16,-4.78 c 0.13,-0.09 0.26,-0.17 0.4,-0.25 l 12.24,-7.1 c 5.32,-3.08 11.9,1.15 11.3,7.27 l -0.88,8.98 c -0.06,0.61 -0.19,1.21 -0.4,1.79 l -1.94,5.46 c -0.06,0.17 -0.12,0.33 -0.19,0.49 l -6.45,14.79 c -2.78,6.37 -6.58,12.23 -11.27,17.35 l -7.32,8 c -3.35,3.67 -7.11,6.95 -11.21,9.78 l -5.73,3.95 c -0.41,0.28 -0.85,0.53 -1.31,0.72 l -16.09,6.9 c -7.59,3.25 -15.52,5.65 -23.64,7.15 l -17.05,3.15 c -0.4,0.08 -0.82,0.12 -1.23,0.13 l -29.03,0.52 c -0.32,0.01 -0.64,-0.01 -0.95,-0.04 l -29.15,-3.17 c -0.3,-0.03 -0.6,-0.08 -0.89,-0.15 l -28.45,-6.57 c -0.3,-0.07 -0.59,-0.16 -0.87,-0.26 l -25.18,-9.15 c -0.39,-0.14 -0.77,-0.31 -1.14,-0.52 l -11.29,-6.38 c -0.19,-0.11 -0.38,-0.21 -0.57,-0.29 l -5.23,-2.4 c -0.65,-0.3 -1.25,-0.69 -1.79,-1.15 -5.32,-4.6 -2.03,-13.32 5,-13.26"
         style="fill:#EECAA2;fill-opacity:1;fill-rule:nonzero;stroke:none"
         transform="matrix(0.13333333,0,0,-0.13333333,0,1440)" />
      <path
         id="path5"
         d="m 5178.56,7703.14 c 0,0 45.62,-331.16 -83.94,-269.93 -55.16,26.07 -80.99,89.95 -112.97,160.77 -53.32,118.04 -155.88,313.29 -155.88,313.29 47.86,-364.17 176.45,-520.47 262.45,-543.93 92.1,-25.13 104.19,63.46 113.37,121.22 9.18,57.76 10.82,211.27 11.4,293.68 0.43,61.35 -34.43,-75.1 -34.43,-75.1"
         style="fill:#EECAA2;fill-opacity:1;fill-rule:nonzero;stroke:none"
         transform="matrix(0.13333333,0,0,-0.13333333,0,1440)" />
      <path
         id="path6"
         d="m 4832.5,6462.1 c 150.64,-61.07 665.4,28.49 665.4,28.49 -497.71,58.02 -951.6,342.92 -951.6,342.92 48.71,-140.45 135.57,-310.35 286.2,-371.41"
         style="fill:#EECAA2;fill-opacity:1;fill-rule:nonzero;stroke:none"
         transform="matrix(0.13333333,0,0,-0.13333333,0,1440)" />
      <path
         id="path7"
         d="m 5675.6,6516.06 c -104.66,-71.44 -347.58,-457.07 -347.58,-457.07 -139.23,-193.04 -632.05,-157.54 -632.05,-157.54 0,0 186.27,-442.28 424.74,-359.45 236.11,82.01 634.64,1028.5 554.89,974.06"
         style="fill:#EECAA2;fill-opacity:1;fill-rule:nonzero;stroke:none"
         transform="matrix(0.13333333,0,0,-0.13333333,0,1440)" />
      <path
         id="path8"
         d="m 5254.66,8113.69 c 49.75,-1.99 97.85,4.1 133.67,-31.66 l 3.37,1.96 c -23.51,57.4 -88.66,93.17 -150.49,95.71 -19.45,1.15 -37.97,0.75 -55.92,-0.42 -33.2,-2.14 -65.14,-13.51 -92.69,-32.16 l -19.9,-13.47 c 29.97,-8.69 59.95,-19.58 89.62,-19.88 30.89,-0.42 61.66,0.46 92.34,-0.08"
         style="fill:#EECAA2;fill-opacity:1;fill-rule:nonzero;stroke:none"
         transform="matrix(0.13333333,0,0,-0.13333333,0,1440)" />
      <path
         id="path9"
         d="m 8218.82,7806.9 c 0,-1.21 0,-2.4 0,-3.6 1.18,-0.79 1.14,0.24 0,3.6"
         style="fill:#EECAA2;fill-opacity:1;fill-rule:nonzero;stroke:none"
         transform="matrix(0.13333333,0,0,-0.13333333,0,1440)" />
      <path
         id="path10"
         d="m 5118.76,1556.08 c 139.25,323.33 381.39,1016.11 381.39,1016.11 0,0 -538.25,-750.12 -661.47,-994.82 -1.39,-2.76 -2.53,-5.46 -3.52,-8.12 -80.58,6.91 -161,16.42 -241.1,28.72 -4.6,0.69 -9.18,1.45 -13.77,2.16 37.8,113.35 75.92,226.6 113.69,339.95 30.05,90.12 53.04,187.44 91.56,274.17 57.54,129.6 138.99,251.08 206.56,375.72 l 361.69,670.2 c 125.27,231.65 158.89,351.5 276.7,587.11 69.15,138.29 155.37,285.19 190.42,436.64 -105.77,-145.47 -193.94,-305.7 -291.35,-456.95 -221.24,-343.49 -357.07,-574.42 -601.6,-901.9 -136.05,-182.19 -272.5,-405.58 -460.76,-538.19 73.57,155.51 185.6,301.12 277.41,446.8 197.36,313.14 -395.03,-229.32 -506.66,-365.57 -57.54,-70.23 -112.42,-150.34 -187.09,-203.09 -0.02,141.89 -13.71,284.82 -19.91,426.49 -11.17,255.16 -6.51,516.41 -0.24,771.75 4.67,190.59 42.46,378.79 50.62,568.66 86.56,-39.77 269.14,-670.45 341.49,-670.2 67.89,0.24 -125.01,-368.41 -68.42,-334.31 121.83,73.41 691.47,609.65 792.12,710.03 -166.95,-87.85 -444.87,27.2 -638.7,115.28 -111.37,50.6 -194.11,162.73 -261.94,260.44 -40.7,58.63 -73.67,117.41 -76.79,191.5 -1.58,37.66 97.78,288.62 119.63,368.46 66.29,-40.11 74.59,-123.48 121.86,-184.24 123.01,-158.13 254.1,-347.45 432.34,-446.8 -131.84,151.39 -254.29,315.15 -357.44,487.42 -67.87,113.35 -127.2,231.01 -129.98,365.56 62.82,-41.02 128.78,-133.58 167.4,-197.67 80.83,-134.16 213.85,-335.25 343.89,-456.7 112.47,-118.08 211.23,-108.1 277.24,-69.82 216.57,125.57 278.02,424.42 271.67,419.52 l -73.04,-63.13 c -55.02,-47.55 -124.27,-76.36 -196.94,-79.18 -28.55,-1.11 -57,0.8 -85.09,5.12 -172.72,26.51 -318.31,143.35 -386.42,304.28 -51.96,122.77 -99.58,242.78 -134.83,348.52 -107.79,323.35 -144.85,419.89 -213.86,754.25 54.68,-61.98 12.71,5.81 43.27,-71.59 210.69,-533.54 297.55,-755.34 513.56,-845.74 -131.88,215.48 -307.15,740.64 -417.77,967.6 -48.28,99.07 -120.7,212.47 -128.4,324.95 -6.16,89.83 14.12,106.21 61.36,170.76 46.77,63.91 82.23,67.48 95.41,146.44 15.72,94.09 -7.7,164.78 -33.28,254.06 -42.17,147.09 -32.18,208.82 -79.51,354.27 22.18,3.16 -0.89,39.28 44.48,7.1 83.72,-59.41 291.29,-277.45 360.65,-317.21 26.7,-15.31 287.78,-30.19 508.39,-78.21 188.22,-40.97 342.78,-117.11 343.27,-117.32 225.95,-95.59 192.14,-159.72 244.32,-355.27 15.75,-59 155.82,-431.85 -136.65,-986.99 53.65,286.8 -2.95,581.69 -2.95,581.69 L 5242.36,4769.6 c 119.04,35.99 195.7,71.96 243.35,100.13 59.25,26.76 119.68,51.21 179.73,75.99 29.71,12.27 68.41,35.24 101.55,31.16 65.68,-8.11 144.39,-108.02 172.26,-164.88 41.94,-85.54 72.82,-199.9 99.11,-291.4 44.98,-156.56 65.91,-324.2 94.27,-484.69 10.03,-56.7 18.6,-116.31 21.11,-173.56 6.97,-159.12 39.74,-300.29 39.74,-460.01 0,-334.42 10.16,-670.11 10.16,-1005.31 0,0 -0.05,-551.09 -262.98,-752 -141.84,-32.28 -285.48,-55.77 -430.03,-70.5 27.02,105.3 57.35,209.97 84.91,314.77 87.77,333.84 171.96,668.96 249.14,1005.31 48.2,210.03 108.39,424.22 125.4,639.74 -45.95,-106.77 -74.87,-224.6 -111.7,-335.11 -75.85,-227.54 -151.78,-455.08 -234.1,-680.35 -118.13,-323.28 -235.36,-647.9 -377.83,-961.51 -42.54,-1.19 -85.11,-1.61 -127.69,-1.3 z M 3035.63,3209.4 c -2.1,79.34 26.83,124.97 101.32,152.32 41.34,-48.53 50.22,-75.16 60.93,-213.25 -32.5,-10.59 -86.08,-42.05 -119.94,-28.05 -33.97,14.04 -41.46,56.82 -42.31,88.98 z m 852.7,-1426.98 c -9.39,3.54 -18.78,7.1 -28.14,10.72 -55.56,30.82 -110.02,64.12 -164.74,96.27 -30.44,17.89 -31.02,22.28 -44.22,55.98 -33.98,86.73 -42.45,147.03 -56.75,209.4 -35.83,156.1 -75.12,311.72 -113.96,467.11 -21.12,84.45 -39.83,169.41 -60.93,253.86 -8.33,33.31 -18.62,33.57 3.78,64.91 31.16,43.59 41.39,41.63 87.83,52.65 106.05,25.16 134.19,46.15 204.56,56.66 28.05,4.2 66.07,11.74 85.89,34.03 41.16,46.29 -43.82,104.09 -85.89,102.48 -51.24,-1.98 -105.46,-25.48 -159.34,-33.31 -105.37,-15.3 -211.55,-25.02 -317.92,-25.02 65.85,205.94 59.26,426.94 79.51,639.74 6.1,64.09 -0.08,129.75 16.08,192.94 24.21,94.63 92.5,195.79 135.34,284.33 83.64,172.91 163.03,350.35 236.07,528.03 54.44,132.48 16.82,274.57 59.51,406.19 31.41,96.82 87.95,191.63 130.4,284.33 61.86,135.09 117.04,276.12 189.08,406.18 29.56,53.33 72.12,97.11 98.38,152.32 h 20.31 c 10.98,-254.99 132.72,-504.07 121.46,-761.6 -14.58,-333.36 -190.16,-638.58 -240.52,-964.68 -69.98,-453.06 -114.39,-913.87 -145.87,-1370.87 -18.4,-267.23 -53.3,-534.36 -59.86,-802.21 -2.8,-113.76 9.59,-226.56 9.94,-340.44 z m -940.8,1448.67 c -250.72,155.32 -255.16,280.68 -136.6,394.65 37.72,36.26 65.91,80.83 96.43,121.85 59.74,80.3 127.81,175.78 174.46,264.02 31.4,59.39 107.72,147.37 118.77,213.25 42.37,252.67 67.27,515.57 140.88,761.59 56.32,188.25 80.63,409.18 149.77,591.36 88.84,234.05 110.11,409.95 173.81,651.78 49.72,188.78 76.06,234.67 117.32,425.83 19.47,90.2 68.77,236.35 130.35,308.51 94.89,111.16 277.16,158.85 412.32,204.58 12.69,-182.91 -3.59,-217.25 35.89,-391.73 15.7,-69.4 37.69,-153.55 17.75,-224.11 -15.7,-55.55 -14.51,-59.04 -46.05,-106.35 -14.99,-22.48 -26.38,-45.3 -35.88,-68.34 -81.74,92.12 -73.79,205.97 -70.66,232.19 0.25,1.78 0.5,3.57 0.74,5.4 0.01,0.09 0.04,0.25 0.04,0.25 0,-0.01 -0.01,-0.02 -0.01,-0.03 2.48,18.66 4.79,39.99 6.79,65.3 -137.81,-180.61 -165.69,-337.89 -203.81,-512.87 -70.01,-208.92 -131.57,-367.16 -185.56,-487.16 -47.68,-91.76 -102.65,-170.23 -143.52,-263.03 -135.82,-189.7 -193.17,-82.11 -209.52,-196.53 0,0 143.85,-155.35 71.01,-476.54 -80.47,-263.49 -202.3,-511.8 -286.48,-773.97 -37.32,-116.2 -9.2,-237.83 -54.68,-355.41 -32.45,-83.92 -115.14,-130.82 -175.08,-193.09 -44.07,-45.75 -74.39,-133.47 -98.48,-191.4 z m -105.03,897.74 c 41.37,0 68.17,-35.27 85.29,-71.54 -5.27,-70.54 -33.13,-165.77 -144.89,-162.89 -7.93,41.69 -12.07,84.12 -11.47,127.37 0.64,45.82 12.2,107.06 71.07,107.06 z m 1464.82,3678.01 c -25.38,52.3 -31.27,69.43 17.38,225.95 24.32,78.26 59.3,175.97 73.1,214.06 -9.58,-131.49 28.95,-292.03 35.53,-240.13 31.52,248.67 212.58,384.35 281.67,427.65 -18.19,-40.85 -150.68,-148.66 -111.39,-611.74 4.76,-56.09 6.24,-108.76 5.53,-157.32 -110.53,-54.93 -279.87,96.27 -301.82,141.53 z m 109.62,825.11 c 6.42,20.19 58.1,121.85 58.1,121.85 0,0 -13.1,34.01 -8.4,80.61 10.77,1.76 21.32,3.01 30.99,1.97 84.98,-8.1 187.96,21.19 267.21,58.01 16.45,7.86 31.8,7.96 46.78,18.49 7.41,5.58 14.74,9.22 23.58,13.34 23.54,10.86 48.34,18.94 72.73,28.28 49.8,18.36 99.92,42.73 153.63,52.45 26.71,5.02 54.02,7.17 80.86,5.77 23.71,-1.49 58.71,-5.03 82.91,-6.84 52.4,-4.93 104.96,-7 153.29,-25.31 80.45,-28.47 136.05,-87.07 186.24,-152.75 4.13,-20.85 17.73,-108.66 -43.86,-116.6 -0.37,0.46 -0.76,0.98 -1.11,1.38 l -0.02,-0.22 c -8.09,18.64 -26.94,32.02 -46.04,36.03 -31.29,6.52 -60.18,-5.27 -85.58,-21.18 -62.97,-43.65 -142.67,-42.66 -216.59,-35.55 -29.25,2.88 -58.56,7.07 -87.81,12.08 -26.7,4.74 -64.78,12.35 -91.43,13.58 -157.64,10.27 -384.94,-38.52 -488.75,-158.72 -5.9,-7.31 -33.38,-68.05 -46.36,-114.75 -45.13,-41.68 -86.58,-14.7 -86.58,-14.7 9.07,53.06 -1.52,52.71 46.21,202.78 z M 4989.85,9253 c 33.92,15.02 171.37,20.07 214.69,-6 43.31,-26.07 59.54,-53.98 59.54,-53.98 0,0 46.59,14.23 108.31,-4.32 48.23,-14.51 118.44,-84.84 164.81,-157.24 3.04,-24.58 -0.11,-50.99 -21.16,-66.57 -75.4,83.97 -180.91,122.04 -291.85,105.19 -24.35,-3.61 -57.62,-9.05 -82.04,-10.54 -56.23,-5.03 -110.62,-12.21 -166.86,-17.13 -42.27,-4.34 -84.35,-38.18 -123.69,-54.64 -17.99,-7.39 -35.55,-15.74 -51.73,-26.53 -119.26,41.91 -77.39,139.21 -36.55,199.07 15.97,11.73 30.29,18.86 44.52,19.67 52.69,3 148.09,57.99 182.01,73.02 z m 778.28,-1289.73 c 1.38,-9.88 0.65,-21 -0.92,-32.68 -1.14,0.74 -2.29,1.53 -3.43,2.26 -45.12,29.07 -75.32,66.28 -102.24,106.76 -7.73,76.24 -0.21,145.02 9.24,194.62 42.39,-77.38 83.72,-173.66 97.35,-270.96 z m 208.57,-486.61 c -256.45,-55.86 -434.65,52.11 -538.52,151.52 -17.11,178.09 128.33,251.47 182.2,272.32 6.85,-6.42 13.99,-12.96 21.74,-19.79 30.05,-26.63 119.62,-73.33 152.08,-95.54 82.56,-56.49 208.57,-65.18 182.5,-308.51 z m 263.82,-43.23 c 50.32,0.44 100.7,0.62 150.99,-1.01 72.84,-12.06 145.42,-24.83 218.31,-25.7 16.06,-0.18 32.25,0.13 48.51,0.86 85.7,-4.1 171.72,3.28 256.36,16.72 11.61,1.92 23.07,3.68 34.46,5.41 -42.31,-112.52 -84.88,-225.18 -126.21,-337.76 -11.62,-2.76 -21.94,-5.38 -30.34,-7.77 -111.06,-31.71 -220.5,-62.36 -335.1,-78.29 -48.96,-6.8 -104.97,-18.12 -150.97,7.14 -83.62,45.92 -25.67,185.54 43.86,285.48 -40.97,-28.85 -179.73,-58.16 -217.26,-91.25 -69.32,-61.14 -106.82,-111.4 -141.53,-200.05 -35.77,-91.32 -24.27,-194.6 -62.14,-284.32 -540.19,180.15 -1020.95,198.12 -1074.65,232.29 -95.59,60.83 -256.93,201.36 -295.47,243.33 -10.13,11.03 12.11,51.18 30.09,84.16 39.78,39.88 63.07,80.58 76.99,106.76 33.46,62.96 56.2,232.45 33.85,359.23 -22.36,126.78 3.14,287.18 13.3,385.39 2.66,25.73 8.04,47.3 14.5,65.21 47.22,-23.18 144.95,-1.29 144.95,-1.29 -85.09,34.03 -114.63,88.42 -124.89,122.1 -17.62,84.08 117.02,117.42 68.4,184.1 -63.26,86.74 50.32,145.68 67.35,153.88 35.35,5.07 70.93,7.75 106.41,7.72 24.81,0.34 62.43,-4.88 87.16,-7.74 30.17,-3.26 60.45,-6.22 91.02,-7.94 80.82,-4.83 170.19,-1.15 237.54,50.54 22.89,17.54 62.49,31.22 84,9.3 l -3.68,-143.96 c -3.06,3.04 -7.26,5.73 -12.85,7.95 -60.38,24.02 -89.84,-12.83 -145.42,-13.82 -55.58,-0.99 -38.43,-52.51 -38.43,-52.51 0,0 29.45,-0.78 91.96,19.46 73.1,23.67 10.64,-33.97 10.64,-33.97 l 41.85,-21.02 c 0,0 51.16,39.92 58.03,71.41 9.5,2 28.82,1.05 52.99,-26.59 10.1,-34.83 14.58,-56.13 6.34,-98.22 -8.19,-29.99 -20.9,-66.34 -39.68,-116.41 -4.75,-12.66 -6.88,-25.4 -7.56,-37.34 -3.05,-11.25 -6.24,-22.46 -9.59,-33.58 -21.04,-67.17 -56.28,-189.85 -119.32,-224.68 -9.18,-5.05 -19.23,-7.06 -29.27,-9.36 -9.67,-2.22 -19.35,-4.14 -29.03,-5.87 -49.84,-4.21 -111.13,-4.14 -165.88,10.95 -96.92,26.72 -64.96,-49.58 -3.77,-82.32 24.97,-13.37 55.57,-38.5 84.16,-66.68 20.91,-31.3 42.39,-69.54 61.55,-115.93 44.32,-107.32 132.48,-212.05 194.16,-331.25 l -238.11,-23.26 c 132.49,-40.62 200.37,-27.01 313.98,-23.98 125.27,3.36 289.16,38.56 415.92,54.35 87.49,6.64 174.18,18.33 261.52,20.13 z m 857.24,269.18 c 33.71,101.14 80.22,208.84 104.29,312.86 0,-78.22 1.9,-72.48 1.9,-115.74 v -253.86 c 0,-22.52 0.15,-45.05 0.27,-67.57 -60,-14.66 -137.09,-34.19 -162.95,-39.54 -0.69,-0.14 -1.36,-0.29 -2.05,-0.44 z m 246.86,-80.38 c -16.38,-5.28 -32.9,-10.79 -49.26,-17.17 -13.73,-5.13 -27.65,-9.89 -41.64,-14.48 -4.66,137.25 -8.22,274.51 -8.22,411.85 64.62,-105.79 64.81,-258.78 99.12,-380.2 z m 245.2,307.85 c 11.37,-4.69 24.02,-9.22 37.15,-13.89 -32.26,-54.77 -63.74,-110.82 -88.79,-167.98 -27.49,-60.17 -77.11,-86.29 -133.77,-106.39 -33.28,142.08 -69.32,283.93 -115.46,425.79 120.21,-40.67 183.51,-89.1 300.87,-137.53 z m -25.34,1063.79 34.23,19.11 c 4.83,2.68 9.68,5.3 14.56,7.87 11.34,5.98 16.53,19.4 12.05,31.42 l -1.79,6.05 c -1.91,5.12 -6.09,1.34 -10.92,-1.21 l -2.4,-1.27 -22.99,-12.18 -22.81,-12.3 -6.6,-3.86 c -17.82,46.54 -8.15,48.2 -3.8,56.89 4.34,8.69 82.55,30.41 82.55,30.41 1.72,8.13 3.97,17.41 -2.92,17.4 -15.93,23.62 -27.19,39.43 -5.76,52.13 22.82,13.52 27.22,10.84 78.53,3.8 50.83,-6.97 96.96,-33.82 127.71,-74.89 57.14,-76.3 124.36,-146.87 169.83,-229.78 51.43,-92.14 98.93,-189.04 112.69,-294.71 1.85,-13.68 2.06,-29.47 2.24,-43.17 -45.79,-169.51 -82.46,-385.32 -121.02,-589.98 -42.92,22.41 -85.85,43.54 -123.71,63.4 -1.35,0.7 -2.83,1.42 -4.22,2.12 -35.5,88.2 52.23,243.75 84.38,326.86 76.45,122.59 177.02,207.98 138.5,214.98 -37.23,6.77 -66.97,37.16 -78.33,50.29 -0.21,0.64 -0.44,1.26 -0.7,1.8 -8.76,18.23 -69.4,27.47 -112.16,43.51 -243.33,91.25 -77.97,149.15 -108.63,160.77 -44.58,16.9 -111.41,31.18 -147.86,14.28 -17.88,17.72 -14.52,40.2 -5.72,59.25 9.26,6.13 18.76,11.95 28.27,17.65 15.04,9.03 48.92,52.05 34.49,47.2 -23.85,-8.02 -55.02,-15.16 -77.67,-25.98 l -22.74,-10.43 c -17.04,-4.39 -21.68,19.7 -30.37,37.08 -8.69,17.38 -6.91,35.49 -6.91,35.49 z m 106.56,220.25 c -4.17,0.64 -8.31,1.27 -12.41,1.88 1.76,0.17 6.16,-0.55 12.41,-1.88 z m 94.8,-618 c 1.71,-1.77 3.3,-3.64 5.11,-5.3 16.66,-15.21 42.08,-32.37 78.5,-42.53 15.51,-4.33 31.74,-5.5 47.79,-4.14 l 1.5,0.12 19.12,4.15 c -0.85,-22.11 -4.03,-44.08 -8.63,-65.71 -18.91,-86.45 -56.66,-167.11 -97.12,-245.6 -23.45,-45.26 -48.56,-89.8 -74.29,-134.01 z M 7871.8,7410.45 c -4.6,-16.41 -50.97,-46.7 -65.77,-55.45 -95.6,-56.49 -204.85,-87.11 -290.7,-117.65 -5.44,-1.81 -10.91,-3.68 -16.37,-5.51 -26.9,111.19 -51.4,222.11 -76.71,332.85 47.67,25.39 91.32,57.31 126.91,98.3 18.34,21.54 33.38,46.56 44.37,72.83 9.68,21.02 20.22,41.69 31.2,62.35 19.33,-0.75 270.4,-14.45 291.12,-217.3 -8.51,-32.18 -22.07,-83.61 -28.98,-111.08 z m -383.44,-323.08 c 35.45,-117.69 79.46,-234.95 104.39,-355.42 -111.32,31.6 -200.52,61.55 -316.84,62.52 0,99.49 -1.86,198.92 -4.65,298.32 l 53.94,14.97 c 47.88,13.95 96.66,27.79 145.38,41.35 5.7,-20.59 11.58,-41.17 17.78,-61.74 z m -278.33,80.24 c -115.33,-21.84 -237.73,-44 -324.98,-62.03 0.23,0.7 0.49,1.4 0.72,2.09 l 117.73,330.39 c 43.23,6.94 85.69,15.2 129.02,29.91 0,0 41.15,12.41 72.43,20.52 1.18,-106.87 3.18,-213.85 5.08,-320.88 z m 159.42,372.16 c 30.92,-107.13 55.12,-214.82 82.89,-322.41 -48.29,-11.66 -113.08,-24.88 -183.71,-38.54 -3.53,107.64 -7.82,215.25 -11.77,322.85 37.87,10.3 75.9,22.69 112.59,38.1 z m -592,-767.2 c 10.17,68.83 33.99,136.37 59.33,203.05 101.49,24.68 204.87,51.29 306.86,81.74 l 67.91,18.85 c 1.44,-91.06 2.55,-182.13 2.55,-273.17 -148.45,0 -290.46,-2.12 -436.65,-30.47 z m 111.74,-186.73 c -73.87,-17.38 -208.57,39.1 -173.81,91.25 34.76,52.14 356.5,54.79 356.5,54.79 -347.44,-79.92 -108.82,-128.66 -182.69,-146.04 z m 1263.63,808.21 c 7.12,-138.42 1.46,-169.28 9.51,-256.31 0,0 14.51,-266.66 23.91,-318.79 25.61,-142.08 35.52,-278.21 63,-419.9 -227.29,17.94 -327.63,16.49 -551.84,-34.76 45.25,165.77 117.45,314.07 177.66,475.02 39.64,106 83.05,194.14 129.68,330.38 0,0 25.32,80.01 40.27,128.82 28.01,91.39 79.59,218.32 108.64,304.16 -0.83,-113.03 -4.08,-145.25 -0.83,-208.62 z m 56.49,-65.18 c 39.96,-42.45 144.36,-476.61 161.18,-536.94 40.2,-144.2 96.81,-292.66 120.85,-442.04 -63.95,27.43 -146.51,23.09 -163.89,36.13 -38.12,28.59 -48.89,139.49 -57.35,188.02 -24.53,140.7 -65.13,524.53 -60.79,754.83 z M 7922.53,6151.32 c -145.72,27.94 -231.81,67.19 -223.72,92.82 8.98,28.43 105.89,58.31 189.04,79.03 18.63,4.64 28.55,-16.37 16.87,-31.61 -90.82,-118.52 -43.03,-96.79 187.27,-153.28 0,0 -27.63,-14.16 -169.46,13.04 z m 821.24,-673.51 -16.76,1.5 -18.16,-1.74 c 14.85,-159.39 19.17,-319.73 12.77,-479.64 -4.79,-119.1 -15.8,-240.37 -32.23,-358.44 C 8675,4533.17 8653.14,4419.73 8629.08,4315.23 8375.3,3232.82 7624.18,2329.56 6620.45,1874.18 l -41.09,147.13 c -138.22,733.58 -239.15,1473.79 -400.34,2203.55 -42.49,192.33 -77.12,395.22 -150.08,578.81 -44.07,110.92 -139.81,192.73 -157.36,314.79 -10.36,72.03 12.66,142.91 24.88,213.25 19.33,111.33 34.15,223.53 52.5,335.1 35.11,213.58 76.39,426.17 111.7,639.74 23.85,144.29 33.69,291.78 134.69,406.17 151.42,171.5 348.54,193.23 556.63,242.54 7.81,1.85 15.68,3.74 23.51,5.61 -21.36,-61.65 -44.67,-143.75 -64.14,-202.14 -11.71,-35.09 -111.68,-48.11 -98.89,-97.7 6.17,-23.99 19.73,-61 32.58,-79.54 32.2,-46.45 201.15,-70.72 261.53,-82.5 197.67,-38.58 326.53,-29.37 525.77,0 64.61,9.52 205.77,75.09 238.24,142.01 20.15,41.55 -17.89,76.17 -34.42,111.26 -35.09,74.57 -52.58,164.52 -75.37,243.71 -15.94,55.35 -30.56,110.59 -44.49,165.77 28.16,7.74 56.23,15.4 83.95,22.84 98.92,26.95 309.79,65.05 344.43,175.97 35.06,129 68.8,259.38 94.22,390.7 l 109.42,-44.46 c -29.95,-88.5 -54.68,-169.58 -98.96,-251.85 -14.5,-26.95 -30.42,-69.53 -53.36,-134.02 0,0 -20.57,-60.03 -38.28,-111.9 -4.67,-24.64 -14.67,-49.82 -25.04,-74.13 v 0 0 c -6.99,-16.39 -14.13,-32.39 -19.87,-47.52 -30.68,-80.95 -59.7,-162.59 -89.94,-243.72 -55.18,-148.01 -103.21,-302.69 -168.27,-446.61 -22.32,-49.41 -112.42,-79.63 -77.11,-142.31 34.2,-60.72 105.6,-120.62 166.89,-146.86 181.88,-77.91 390.47,-83.95 581.59,-40.72 76.96,17.42 229.35,73.12 261.57,157.48 22.92,60.02 -40.31,118.39 -56.69,174.36 -43.45,148.67 -208.3,750.58 -217.25,782.14 -24.91,87.78 -50.02,181.33 -73.87,269.4 -24.29,89.67 -20.98,219.33 -20.91,352.77 -3.94,2.6 -22.02,26.03 -63.57,57.45 -26.46,20 -56.97,39.2 -89.1,57.64 3.62,27.98 6.75,55.99 9.28,84.04 19.53,216.41 76.78,540.39 75.7,540.81 -0.66,32.68 -6.7,64.6 -14.09,96.22 -21.26,91.58 -40.24,169.16 -87.68,249.39 -47.02,80.53 -104.29,139.05 -155.95,226.22 -14.39,24.29 -33.97,44.62 -56.96,59.56 v 43.53 c 0,21.12 -18.72,37.34 -39.63,34.34 l -114.24,-1.49 c -13.74,-1.98 -23.95,-13.76 -23.95,-27.65 V 9216 c -55.14,8.24 -102.88,13.65 -108.97,-1.26 l -56.37,-136.89 c -1.84,-1.75 -3.74,-3.55 -5.76,-5.41 -31.71,-29.34 20.91,-144.25 20.91,-144.25 l 14.91,-38.58 c 6.13,-11.35 13.05,-22.37 18.18,-34.22 l 6.82,-19.14 c -2.8,-34.5 8.89,-85.61 44.76,-112.51 16,-12 19.31,-10.91 47.8,-17.39 l -17.02,-570.21 c -165.14,45.17 -333.91,84.5 -501.18,119 15.8,-61.04 -22.04,-137.04 44.57,-161.46 -39.43,-144.47 -79.73,-289.58 -131.17,-430.23 -16.69,-45.63 -33.67,-91.33 -50.74,-137.06 -102.31,-23.78 -188.85,-48.99 -300.4,-54.07 -77.33,-3.52 -186.11,28.62 -263.74,32.03 -9.14,0.39 -114.3,15.76 -292.45,-10.31 -11.94,-0.53 -36.01,-6.55 -63.24,-13.94 31.15,125.82 -80.86,274.51 -203.71,379.41 -2.24,60.63 -18.87,151.02 -89.36,281.97 -10.49,19.48 -18.52,63.22 -26.07,91.25 -30.36,112.75 -0.14,91.31 -112.33,276.96 3.87,62.94 16.21,108.13 23.66,139.2 0,0 20.08,101.15 16.77,127.42 -3.32,26.28 -30.51,121.88 -53.8,170.7 -23.29,48.83 -54.66,186 -97.56,222.21 -42.91,36.21 -121.15,79.69 -165.55,90.24 -44.4,10.55 -72.76,16.09 -152.93,57.63 -188.25,97.53 -218.33,37.95 -301.23,-2.41 -18.95,-9.23 -66.63,-35.82 -111.03,-61.08 -44.4,-25.26 -190.83,-182.77 -229.75,-214.36 -38.93,-31.59 -155.36,-116.67 -180.28,-202.2 -24.92,-85.54 -32.43,-123.46 -68.04,-303.32 -21.06,-106.41 25.38,-178.57 41.42,-228.73 16.05,-50.16 -75.65,-189.13 -104.1,-250.42 -46.55,-100.28 -55.55,-201.57 -26.07,-291.12 29.47,-89.56 213.01,-79.26 239.63,-199.08 6.55,-29.48 49.8,-188.19 100.82,-228.35 -1.88,-6.57 -3.01,-10.04 -3.01,-10.04 -4.56,-8.13 -9.18,-15.44 -13.86,-22.19 l -115.01,-53.08 c -160.31,21.06 -391.07,-78.21 -519.66,-134.26 -92.93,-40.5 -133.78,-130.76 -166.88,-217.7 -149.73,-393.22 -139.85,-552.36 -252.02,-955.95 -25.85,-92.97 -32.62,-290.34 -74.84,-377.54 -30.55,-63.09 -75.44,-192.4 -90.28,-261.2 -43.18,-200.08 -42.19,-210.56 -77.24,-358.23 -46.73,-196.94 -53.69,-399.56 -86.96,-599.12 -23.47,-140.86 -78.28,-218.39 -141.08,-346.8 -38.35,82 -71,186.38 -172.58,202.26 -44.98,7.03 -81.54,-17.22 -105.21,-48.8 -52.24,-69.71 -55.6,-170.48 -42.64,-253.46 11.32,-72.51 43.48,-141.42 53.94,-213.25 5.38,-36.98 -90.6,-117.04 -106.09,-151.1 -21.72,-47.8 -13.77,-102.87 30.42,-147.73 67.08,-68.12 185.14,-144.84 242.31,-221.09 34.61,-46.14 97.62,-76.59 120.22,-129.97 -82.59,-23.78 -149.44,-17.73 -235.02,-33.96 -59.57,-11.31 -136.32,-6.83 -191.17,-33.7 -33.64,-16.47 -98.9,-121.75 -90.31,-162.67 9.11,-43.47 86.43,-14.11 110.32,-4.6 139.95,55.73 308.57,39.87 448.21,81.15 1.82,-6.44 3.54,-12.95 5.32,-19.41 l 58.25,-235.33 c 21.88,-94 43.67,-188.39 69.52,-280.82 l 67.35,-272.09 c -475.07,289.04 -883.96,687.15 -1177.86,1161.12 -1076.72,1703.17 -480.43,3974.39 1267.27,4974.48 l -28.15,43.36 C 2619.12,7886.38 2019.13,7233.94 1701.19,6470.26 1610.11,6251.1 1539.46,6022.12 1492.43,5789.48 1289.68,4788.08 1516.87,3738.18 2120.12,2909.53 2625.38,2212.6 3362.63,1708.87 4197.01,1495.6 c 974.12,-247.99 2012.67,-93.53 2865.42,440.61 1201.55,750.69 1889.21,2133.39 1681.34,3541.6"
         style="fill:#EECAA2;fill-opacity:1;fill-rule:nonzero;stroke:none"
         transform="matrix(0.13333333,0,0,-0.13333333,0,1440)" />
      <path
         id="path11"
         d="m 5351.63,8890.75 c 23.7,-3.08 64.55,19.71 117.96,-11.37 0,0 5.65,15.21 -25.27,34.1 -22.01,13.44 -83.18,11.35 -117.97,11.36 -6.19,1.21 -59.76,15.52 -75.84,15.15 -46.34,-1.04 -150.06,-33 -176.95,-26.51 0,0 37.91,-26.52 126.39,-37.88 32.2,-4.14 119.05,3.72 151.68,15.15"
         style="fill:#EECAA2;fill-opacity:1;fill-rule:nonzero;stroke:none"
         transform="matrix(0.13333333,0,0,-0.13333333,0,1440)" />
    </g>
  </g>
</svg>
